<svg width="20" height="20" viewBox="0 0 20 20" fill="none" xmlns="http://www.w3.org/2000/svg">
<path fill-rule="evenodd" clip-rule="evenodd" d="M0 10C0 4.46939 4.46939 0 10 0C15.5306 0 20 4.46939 20 10C20 15.5306 15.5306 20 10 20C4.46939 20 0 15.5306 0 10ZM1.66122 10C1.66122 14.5959 5.40408 18.3388 10 18.3388C14.5959 18.3388 18.3388 14.5959 18.3388 10C18.3388 5.40408 14.5959 1.66122 10 1.66122C5.40408 1.66122 1.66122 5.40408 1.66122 10Z" fill="#5C81C2"/>
<path fill-rule="evenodd" clip-rule="evenodd" d="M11.7601 11.299L13.8831 13.409C14.0183 13.5458 14.0183 13.7479 13.8831 13.8815C13.7479 14.0167 13.5442 14.0167 13.409 13.8815L11.2941 11.7633L9.29817 13.7642C9.2053 13.8912 8.95275 13.8978 8.82403 13.7642C8.1446 13.0554 7.9279 12.0517 8.2831 11.154L6.10143 8.96742C5.96619 8.83218 5.96619 8.62852 6.10143 8.49328L8.50306 6.10306C8.63829 5.96782 8.84196 5.96782 8.97719 6.10306L11.1426 8.27495C11.4293 8.15601 11.734 8.1055 12.0387 8.1055C12.6823 8.1055 13.29 8.35968 13.7642 8.81752C13.8994 8.95275 13.8994 9.15642 13.7642 9.29165L11.7601 11.299ZM8.97719 11.2403C8.6725 11.8334 8.72301 12.5112 9.07821 13.0538L13.0196 9.10265C12.7328 8.89899 12.3939 8.79797 12.0224 8.79797C11.7356 8.79797 11.4652 8.8664 11.211 9.00163C11.0758 9.06844 10.9226 9.03422 10.8216 8.9332L8.74094 6.81507L6.81181 8.74909L8.90876 10.8509C9.01141 10.9519 9.0277 11.1051 8.97719 11.2403Z" fill="#5C81C2"/>
<path d="M13.8831 13.409L14.1499 13.1454L14.1474 13.143L13.8831 13.409ZM11.7601 11.299L11.4947 11.034L11.2291 11.3L11.4957 11.565L11.7601 11.299ZM13.8831 13.8815L13.6195 13.6147L13.6179 13.6163L13.8831 13.8815ZM13.409 13.8815L13.1436 14.1464L13.1438 14.1466L13.409 13.8815ZM11.2941 11.7633L11.5595 11.4984L11.294 11.2325L11.0286 11.4985L11.2941 11.7633ZM9.29817 13.7642L9.03268 13.4993L9.01237 13.5197L8.9954 13.5429L9.29817 13.7642ZM8.82403 13.7642L8.55332 14.0237L8.55397 14.0243L8.82403 13.7642ZM8.2831 11.154L8.6318 11.2919L8.72228 11.0632L8.54856 10.8891L8.2831 11.154ZM6.10143 8.96742L6.36689 8.70255L6.36659 8.70225L6.10143 8.96742ZM6.10143 8.49328L5.83689 8.22749L5.83626 8.22812L6.10143 8.49328ZM8.50306 6.10306L8.76759 6.36885L8.76822 6.36822L8.50306 6.10306ZM8.97719 6.10306L9.24275 5.83829L9.24235 5.83789L8.97719 6.10306ZM11.1426 8.27495L10.877 8.53972L11.0543 8.71754L11.2862 8.62134L11.1426 8.27495ZM13.7642 8.81752L14.0294 8.55231L14.0246 8.54776L13.7642 8.81752ZM13.7642 9.29165L13.499 9.02649L13.4988 9.0267L13.7642 9.29165ZM9.07821 13.0538L8.76446 13.2592L9.01747 13.6456L9.3437 13.3186L9.07821 13.0538ZM8.97719 11.2403L9.31075 11.4117L9.32079 11.3921L9.32849 11.3715L8.97719 11.2403ZM13.0196 9.10265L13.285 9.36749L13.5981 9.05362L13.2367 8.79692L13.0196 9.10265ZM11.211 9.00163L11.3772 9.338L11.3871 9.33269L11.211 9.00163ZM10.8216 8.9332L10.5541 9.196L10.5564 9.19837L10.8216 8.9332ZM8.74094 6.81507L9.00846 6.55229L8.74298 6.28203L8.47544 6.55025L8.74094 6.81507ZM6.81181 8.74909L6.54631 8.48426L6.28213 8.74911L6.54634 9.01394L6.81181 8.74909ZM8.90876 10.8509L8.64327 11.1158L8.64572 11.1182L8.90876 10.8509ZM14.1474 13.143L12.0244 11.033L11.4957 11.565L13.6187 13.6749L14.1474 13.143ZM14.1466 14.1482C14.4322 13.8661 14.4276 13.4265 14.1498 13.1454L13.6163 13.6725C13.6175 13.6737 13.6156 13.6721 13.6134 13.6669C13.6112 13.6617 13.6095 13.6547 13.6095 13.6464C13.6095 13.6382 13.6112 13.6305 13.6139 13.6241C13.6152 13.6211 13.6166 13.6187 13.6177 13.617C13.6189 13.6154 13.6196 13.6146 13.6195 13.6147L14.1466 14.1482ZM13.1438 14.1466C13.4255 14.4283 13.8666 14.4283 14.1483 14.1466L13.6179 13.6163C13.6177 13.6166 13.62 13.6142 13.6257 13.6118C13.6312 13.6095 13.6383 13.6079 13.646 13.6079C13.6538 13.6079 13.6608 13.6095 13.6664 13.6118C13.672 13.6142 13.6744 13.6166 13.6741 13.6163L13.1438 14.1466ZM11.0287 12.0283L13.1436 14.1464L13.6743 13.6165L11.5595 11.4984L11.0287 12.0283ZM9.56366 14.029L11.5596 12.0282L11.0286 11.4985L9.03268 13.4993L9.56366 14.029ZM8.55397 14.0243C8.70394 14.18 8.9063 14.2384 9.0779 14.2369C9.24277 14.2354 9.46197 14.1756 9.60094 13.9854L8.9954 13.5429C9.01942 13.51 9.04545 13.496 9.05687 13.4912C9.06825 13.4864 9.07318 13.4869 9.07118 13.4869C9.06958 13.4869 9.06896 13.4865 9.07089 13.4872C9.07308 13.488 9.08261 13.4921 9.09409 13.504L8.55397 14.0243ZM7.9344 11.016C7.52247 12.0572 7.77778 13.2146 8.55333 14.0237L9.09474 13.5047C8.51142 12.8962 8.33333 12.0463 8.6318 11.2919L7.9344 11.016ZM5.83596 9.23229L8.01763 11.4188L8.54856 10.8891L6.36689 8.70255L5.83596 9.23229ZM5.83626 8.22812C5.55458 8.5098 5.55458 8.9509 5.83626 9.23258L6.36659 8.70225C6.36631 8.70197 6.36869 8.70436 6.37107 8.71001C6.3734 8.71557 6.375 8.72258 6.375 8.73035C6.375 8.73812 6.3734 8.74513 6.37107 8.75069C6.36869 8.75634 6.36631 8.75873 6.36659 8.75845L5.83626 8.22812ZM8.23852 5.83726L5.83689 8.22749L6.36596 8.75908L8.76759 6.36885L8.23852 5.83726ZM9.24235 5.83789C8.96067 5.55621 8.51957 5.55621 8.23789 5.83789L8.76822 6.36822C8.7685 6.36794 8.76611 6.37033 8.76046 6.3727C8.7549 6.37504 8.74789 6.37663 8.74012 6.37663C8.73235 6.37663 8.72534 6.37504 8.71978 6.3727C8.71413 6.37033 8.71174 6.36794 8.71202 6.36822L9.24235 5.83789ZM11.4081 8.01019L9.24275 5.83829L8.71163 6.36782L10.877 8.53972L11.4081 8.01019ZM12.0387 7.7305C11.6929 7.7305 11.3382 7.78784 10.9989 7.92857L11.2862 8.62134C11.5205 8.52418 11.7752 8.4805 12.0387 8.4805V7.7305ZM14.0246 8.54776C13.484 8.02568 12.7841 7.7305 12.0387 7.7305V8.4805C12.5805 8.4805 13.0961 8.69367 13.5037 9.08728L14.0246 8.54776ZM14.0293 9.55682C14.311 9.27514 14.311 8.83403 14.0293 8.55235L13.499 9.08268C13.4993 9.08296 13.4969 9.08058 13.4945 9.07492C13.4922 9.06937 13.4906 9.06235 13.4906 9.05459C13.4906 9.04682 13.4922 9.0398 13.4945 9.03425C13.4969 9.0286 13.4993 9.02621 13.499 9.02649L14.0293 9.55682ZM12.0255 11.5639L14.0295 9.5566L13.4988 9.0267L11.4947 11.034L12.0255 11.5639ZM9.39196 12.8484C9.10804 12.4147 9.06987 11.8806 9.31075 11.4117L8.64363 11.069C8.27514 11.7862 8.33799 12.6077 8.76446 13.2592L9.39196 12.8484ZM12.7541 8.83781L8.81271 12.7889L9.3437 13.3186L13.285 9.36749L12.7541 8.83781ZM12.0224 9.17297C12.3236 9.17297 12.5849 9.25393 12.8024 9.40839L13.2367 8.79692C12.8806 8.54404 12.4642 8.42297 12.0224 8.42297V9.17297ZM11.3871 9.33269C11.588 9.22584 11.7981 9.17297 12.0224 9.17297V8.42297C11.6732 8.42297 11.3424 8.50695 11.0349 8.67057L11.3871 9.33269ZM10.5564 9.19837C10.7606 9.40257 11.0849 9.48219 11.3771 9.33785L11.0449 8.66542C11.048 8.66389 11.0526 8.66229 11.0583 8.66154C11.0638 8.66082 11.0689 8.66108 11.0732 8.66189C11.0814 8.66345 11.0855 8.66674 11.0868 8.66804L10.5564 9.19837ZM8.47342 7.07786L10.5541 9.19599L11.0891 8.67041L9.00846 6.55229L8.47342 7.07786ZM7.07731 9.01392L9.00644 7.0799L8.47544 6.55025L6.54631 8.48426L7.07731 9.01392ZM9.17423 10.5861L7.07729 8.48423L6.54634 9.01394L8.64328 11.1158L9.17423 10.5861ZM9.32849 11.3715C9.41698 11.1346 9.40537 10.8135 9.17179 10.5836L8.64572 11.1182C8.64078 11.1133 8.63663 11.1075 8.63372 11.1016C8.63094 11.096 8.63011 11.092 8.6299 11.0907C8.62971 11.0894 8.63005 11.0906 8.62964 11.0943C8.62922 11.098 8.62815 11.1031 8.62589 11.1091L9.32849 11.3715Z" fill="#5C81C2"/>
</svg>
